<svg xmlns="http://www.w3.org/2000/svg" width="1400" height="900" viewBox="0 0 1400 900">
  <defs>
    <linearGradient id="bg" x1="0" x2="1" y1="0" y2="1">
      <stop offset="0" stop-color="#0c1217" />
      <stop offset="1" stop-color="#1b2731" />
    </linearGradient>
    <linearGradient id="cup" x1="0" x2="0" y1="0" y2="1">
      <stop offset="0" stop-color="#f7e7c2" />
      <stop offset="1" stop-color="#d8ba7c" />
    </linearGradient>
  </defs>
  <rect width="1400" height="900" fill="url(#bg)" />
  <rect width="1400" height="900" fill="#c8a45d" opacity="0.12" />
  <circle cx="1100" cy="200" r="110" fill="#c8a45d" opacity="0.22" />
  <rect x="210" y="320" width="980" height="360" rx="36" fill="#0f151c" stroke="#27323d" stroke-width="3" />
  <rect x="250" y="360" width="900" height="280" rx="30" fill="#121a22" stroke="#32404d" stroke-width="2" />
  <rect x="270" y="380" width="340" height="240" rx="26" fill="#152028" stroke="#3b4c5b" stroke-width="2" />
  <rect x="640" y="380" width="480" height="78" rx="18" fill="#19242d" stroke="#3b4c5b" stroke-width="2" />
  <rect x="640" y="488" width="480" height="52" rx="16" fill="#19242d" stroke="#3b4c5b" stroke-width="2" />
  <rect x="640" y="560" width="260" height="46" rx="14" fill="#c8a45d" opacity="0.38" />
  <rect x="926" y="560" width="194" height="46" rx="14" fill="#c8a45d" opacity="0.24" />
  <circle cx="440" cy="500" r="96" fill="#0f151c" stroke="#c8a45d" stroke-width="3" />
  <ellipse cx="440" cy="520" rx="60" ry="16" fill="#c8a45d" opacity="0.3" />
  <rect x="400" y="430" width="80" height="120" rx="18" fill="url(#cup)" stroke="#c8a45d" stroke-width="3" />
  <rect x="475" y="470" width="24" height="70" rx="12" fill="none" stroke="#c8a45d" stroke-width="3" />
  <path d="M420 418c-6 -14 8 -24 20 -32c12 -8 22 -16 14 -30" stroke="#f7e7c2" stroke-width="6" fill="none" stroke-linecap="round" />
  <path d="M450 410c-6 -14 8 -24 20 -32c12 -8 22 -16 14 -30" stroke="#f7e7c2" stroke-width="6" fill="none" stroke-linecap="round" />
  <path d="M480 402c-6 -14 8 -24 20 -32c12 -8 22 -16 14 -30" stroke="#f7e7c2" stroke-width="6" fill="none" stroke-linecap="round" />
  <text x="50%" y="32%" fill="#f4e9d6" font-family="'Playfair Display', 'Times New Roman', serif" font-size="108" font-weight="700" text-anchor="middle">Moon Koffee</text>
  <text x="50%" y="42%" fill="#e6d4ae" font-family="'Poppins', 'Arial', sans-serif" font-size="46" text-anchor="middle">Ambiance café chaleureuse</text>
</svg>
